<?xml version="1.0" encoding="UTF-8"?>
<svg id="Capa_2" data-name="Capa 2" xmlns="http://www.w3.org/2000/svg" viewBox="0 0 400 103.03">
  <defs>
    <style>
      .cls-1 {
        fill: #f4f4f5;
        stroke-width: 0px;
      }
    </style>
  </defs>
  <g id="Capa_1-2" data-name="Capa 1">
    <g id="elenaCibaja-logoLg-dark-F4F4F5">
      <g>
        <path class="cls-1" d="M.76,6.13L0,.76h19.98v4.32H6.02v12.27h12.21l-1.17,4.32H6.02v13.2h14.6l-1.17,4.32H.76V6.13Z"/>
        <path class="cls-1" d="M35.11,6.13l-.76-5.37h6.02v34h15.07l-1.17,4.44h-19.16V6.13Z"/>
        <path class="cls-1" d="M67.48,6.13l-.76-5.37h19.98v4.32h-13.96v12.27h12.21l-1.17,4.32h-11.04v13.2h14.6l-1.17,4.32h-18.69V6.13Z"/>
        <path class="cls-1" d="M133.08,34.82l.35,4.38h-2.75l-21.91-24.54-2.51-3.8v23.95l.58,4.38h-5.37V6.13l-.76-5.37h3.56l21.44,24.3,2.57,3.8V6.13l-.76-5.37h5.55v34.06Z"/>
        <path class="cls-1" d="M158.84.76l3.56-.76,11.92,32.77,2.92,6.43h-6.37l-3.68-10.05h-14.31l-3.8,10.05h-5.08L158.84.76ZM154.46,24.71h11.27l-4.85-13.44-.58-2.28-.7,2.34-5.14,13.38Z"/>
        <path class="cls-1" d="M234.32,8.82c-2.75-2.86-5.96-4.44-9.81-4.44-7.54,0-12.74,7.71-12.74,15.83,0,9.41,6.6,15.25,13.14,15.25,5.32,0,11.33-4.91,11.33-4.91l1.29,4.32s-5.61,5.08-13.55,5.08c-9.05,0-17.82-6.66-17.82-19.16S214.46.06,224.74.06c4.85,0,8.82,1.64,12.27,4.79l-2.69,3.97Z"/>
        <path class="cls-1" d="M256.52,34.82l.58,4.38h-5.84V6.13l-.76-5.37h6.02v34.06Z"/>
        <path class="cls-1" d="M283.1.47c7.3-.23,12.5,3.04,12.5,9.11,0,3.21-2.86,6.48-4.38,8,3.8,1.75,6.6,4.15,6.6,9.7,0,6.25-3.74,11.92-14.37,11.92h-8.82V6.13l-.76-5.37,9.23-.29ZM279.89,16.24h4.21c2.22,0,4.15.41,4.26.41.99-1.34,2.22-3.33,2.22-5.9,0-4.09-2.51-6.02-8.18-6.02-.76,0-1.64.06-2.51.12v11.39ZM279.89,34.99h4.26c6.25,0,8.12-3.62,8.12-7.19,0-5.32-3.1-7.24-9.05-7.24h-3.33v14.43Z"/>
        <path class="cls-1" d="M320.61.76l3.56-.76,11.92,32.77,2.92,6.43h-6.37l-3.68-10.05h-14.31l-3.8,10.05h-5.08L320.61.76ZM316.23,24.71h11.28l-4.85-13.44-.58-2.28-.7,2.34-5.14,13.38Z"/>
        <path class="cls-1" d="M355.84,36.98c0,7.19-3.45,13.85-11.45,13.85-.93,0-1.99-.12-3.15-.35l.29-5.14c.99.47,1.93.76,2.86.76,3.8,0,6.19-4.21,6.19-9.11V6.13l-.76-5.37h6.02v36.22Z"/>
        <path class="cls-1" d="M381.6.76l3.56-.76,11.92,32.77,2.92,6.43h-6.37l-3.68-10.05h-14.31l-3.8,10.05h-5.08L381.6.76ZM377.22,24.71h11.28l-4.85-13.44-.58-2.28-.7,2.34-5.14,13.38Z"/>
      </g>
      <g>
        <path class="cls-1" d="M117.99,101.59l.16,1.23h-1.64v-9.29l-.21-1.51h1.69v9.57Z"/>
        <path class="cls-1" d="M136.69,101.59l.1,1.23h-.77l-6.15-6.89-.71-1.07v6.73l.16,1.23h-1.51v-9.29l-.21-1.51h1l6.02,6.83.72,1.07v-6.38l-.21-1.51h1.56v9.57Z"/>
        <path class="cls-1" d="M144.69,92.02h8.47v1.25h-3.55v8.32l.16,1.23h-1.64v-9.55h-3.45v-1.25Z"/>
        <path class="cls-1" d="M161.35,93.53l-.21-1.51h5.61v1.21h-3.92v3.45h3.43l-.33,1.21h-3.1v3.71h4.1l-.33,1.21h-5.25v-9.29Z"/>
        <path class="cls-1" d="M181.57,102.82l-2.89-4.05c-.18.02-.41.02-1.38.02v2.81l.16,1.23h-1.64v-9.29l-.21-1.51h3.05c1.81,0,3.55,1.03,3.55,3.25,0,1.28-.8,2.48-2.1,3.09l3.36,4.46h-1.9ZM178.37,97.57c1.21,0,2.28-1.05,2.28-2.3,0-1.35-1.07-2.03-2.28-2.03h-1.07v4.33h1.07Z"/>
        <path class="cls-1" d="M193.22,101.59l.16,1.23h-1.64v-9.29l-.21-1.51h1.69v9.57Z"/>
        <path class="cls-1" d="M211.72,97.32c0,3.18-2.15,5.71-4.96,5.71-3,0-4.71-2.48-4.71-5.51s2.12-5.69,4.92-5.69c3.17,0,4.74,2.35,4.74,5.5ZM206.89,101.85c1.94,0,3.22-1.99,3.22-4.43s-1.28-4.43-3.22-4.43-3.23,1.99-3.23,4.43,1.3,4.43,3.23,4.43Z"/>
        <path class="cls-1" d="M226.31,102.82l-2.89-4.05c-.18.02-.41.02-1.38.02v2.81l.16,1.23h-1.64v-9.29l-.21-1.51h3.05c1.81,0,3.54,1.03,3.54,3.25,0,1.28-.8,2.48-2.1,3.09l3.36,4.46h-1.9ZM223.11,97.57c1.21,0,2.28-1.05,2.28-2.3,0-1.35-1.07-2.03-2.28-2.03h-1.07v4.33h1.07Z"/>
        <path class="cls-1" d="M237.96,101.59l.16,1.23h-1.64v-9.29l-.21-1.51h1.69v9.57Z"/>
        <path class="cls-1" d="M247.08,100.41s1.2,1.44,2.82,1.44c.94,0,1.76-.64,1.76-1.79,0-2.17-4.71-2.25-4.71-5.15,0-1.69,1.31-3.09,3.17-3.09,1.3,0,2.22.46,2.71.77l-.43,1.2c-.03-.08-1.08-.8-2.33-.8-.77,0-1.58.53-1.58,1.48,0,2.36,4.63,2.17,4.63,5.38,0,1.85-1.26,3.18-3.27,3.18s-2.94-1.21-2.94-1.21c.02-.02.16-1.41.16-1.41Z"/>
        <path class="cls-1" d="M260.26,92.02h8.47v1.25h-3.54v8.32l.16,1.23h-1.64v-9.55h-3.45v-1.25Z"/>
        <path class="cls-1" d="M278.53,92.02l1-.21,3.35,9.21.82,1.8h-1.79l-1.03-2.82h-4.02l-1.07,2.82h-1.43l4.17-10.8ZM277.3,98.75h3.17l-1.36-3.77-.16-.64-.2.66-1.44,3.76Z"/>
      </g>
      <rect class="cls-1" x="22.62" y="65.27" width="354.76" height="2.96"/>
    </g>
  </g>
</svg>