<?xml version="1.0" encoding="UTF-8"?>
<svg id="Capa_2" data-name="Capa 2" xmlns="http://www.w3.org/2000/svg" viewBox="0 0 300 38.12">
  <defs>
    <style>
      .cls-1 {
        fill: #f4f4f5;
        stroke-width: 0px;
      }
    </style>
  </defs>
  <g id="Capa_1-2" data-name="Capa 1">
    <g id="elenaCibaja-logoMd-dark-F4F4F5">
      <g>
        <path class="cls-1" d="M.57,4.6L0,.57h14.98v3.24H4.51v9.2h9.16l-.88,3.24H4.51v9.9h10.95l-.88,3.24H.57V4.6Z"/>
        <path class="cls-1" d="M26.33,4.6l-.57-4.03h4.51v25.5h11.3l-.88,3.33h-14.37V4.6Z"/>
        <path class="cls-1" d="M50.61,4.6l-.57-4.03h14.98v3.24h-10.47v9.2h9.16l-.88,3.24h-8.28v9.9h10.95l-.88,3.24h-14.02V4.6Z"/>
        <path class="cls-1" d="M99.81,26.11l.26,3.29h-2.06l-16.43-18.4-1.88-2.85v17.96l.44,3.29h-4.03V4.6l-.57-4.03h2.67l16.08,18.23,1.93,2.85V4.6l-.57-4.03h4.16v25.54Z"/>
        <path class="cls-1" d="M119.13.57l2.67-.57,8.94,24.58,2.19,4.82h-4.78l-2.76-7.54h-10.73l-2.85,7.54h-3.81L119.13.57ZM115.85,18.53h8.46l-3.64-10.08-.44-1.71-.53,1.75-3.86,10.03Z"/>
        <path class="cls-1" d="M175.74,6.62c-2.06-2.15-4.47-3.33-7.36-3.33-5.65,0-9.55,5.78-9.55,11.87,0,7.05,4.95,11.44,9.86,11.44,3.99,0,8.5-3.68,8.5-3.68l.96,3.24s-4.21,3.81-10.16,3.81c-6.79,0-13.36-4.99-13.36-14.37S160.84.04,168.56.04c3.64,0,6.62,1.23,9.2,3.59l-2.02,2.98Z"/>
        <path class="cls-1" d="M192.39,26.11l.44,3.29h-4.38V4.6l-.57-4.03h4.51v25.54Z"/>
        <path class="cls-1" d="M212.33.35c5.48-.18,9.38,2.28,9.38,6.83,0,2.41-2.15,4.86-3.29,6,2.85,1.31,4.95,3.11,4.95,7.27,0,4.69-2.8,8.94-10.78,8.94h-6.62V4.6l-.57-4.03,6.92-.22ZM209.92,12.18h3.15c1.67,0,3.11.31,3.2.31.74-1.01,1.66-2.5,1.66-4.43,0-3.07-1.88-4.51-6.13-4.51-.57,0-1.23.04-1.88.09v8.54ZM209.92,26.24h3.2c4.69,0,6.09-2.72,6.09-5.39,0-3.99-2.32-5.43-6.79-5.43h-2.5v10.82Z"/>
        <path class="cls-1" d="M240.46.57l2.67-.57,8.94,24.58,2.19,4.82h-4.78l-2.76-7.54h-10.73l-2.85,7.54h-3.81L240.46.57ZM237.17,18.53h8.46l-3.64-10.08-.44-1.71-.53,1.75-3.86,10.03Z"/>
        <path class="cls-1" d="M266.88,27.73c0,5.39-2.58,10.38-8.59,10.38-.7,0-1.49-.09-2.37-.26l.22-3.86c.74.35,1.45.57,2.15.57,2.85,0,4.64-3.15,4.64-6.83V4.6l-.57-4.03h4.51v27.16Z"/>
        <path class="cls-1" d="M286.2.57l2.67-.57,8.94,24.58,2.19,4.82h-4.78l-2.76-7.54h-10.73l-2.85,7.54h-3.81l11.13-28.83ZM282.91,18.53h8.46l-3.64-10.08-.44-1.71-.53,1.75-3.86,10.03Z"/>
      </g>
    </g>
  </g>
</svg>