<?xml version="1.0" encoding="UTF-8"?>
<svg id="Capa_2" data-name="Capa 2" xmlns="http://www.w3.org/2000/svg" viewBox="0 0 500 329.36">
  <defs>
    <style>
      .cls-1 {
        fill: #f4f4f5;
        stroke-width: 0px;
      }
    </style>
  </defs>
  <g id="Capa_1-2" data-name="Capa 1">
    <g id="elenaCibaja-logoXl-dark-F4F4F5">
      <g>
        <path class="cls-1" d="M.95,208.24l-.95-6.72h24.97v5.4H7.52v15.33h15.26l-1.46,5.4H7.52v16.5h18.26l-1.46,5.4H.95v-41.33Z"/>
        <path class="cls-1" d="M43.89,208.24l-.95-6.72h7.52v42.5h18.84l-1.46,5.55h-23.95v-41.33Z"/>
        <path class="cls-1" d="M84.34,208.24l-.95-6.72h24.97v5.4h-17.45v15.33h15.26l-1.46,5.4h-13.8v16.5h18.26l-1.46,5.4h-23.37v-41.33Z"/>
        <path class="cls-1" d="M166.35,244.09l.44,5.48h-3.43l-27.38-30.67-3.14-4.75v29.94l.73,5.48h-6.72v-41.33l-.95-6.72h4.45l26.8,30.38,3.21,4.75v-28.41l-.95-6.72h6.94v42.57Z"/>
        <path class="cls-1" d="M198.55,201.52l4.45-.95,14.9,40.97,3.65,8.03h-7.96l-4.6-12.56h-17.89l-4.75,12.56h-6.35l18.55-48.05ZM193.08,231.46h14.09l-6.06-16.79-.73-2.85-.88,2.92-6.43,16.72Z"/>
        <path class="cls-1" d="M292.9,211.6c-3.43-3.58-7.45-5.55-12.27-5.55-9.42,0-15.92,9.64-15.92,19.79,0,11.76,8.25,19.06,16.43,19.06,6.65,0,14.17-6.13,14.17-6.13l1.61,5.4s-7.01,6.35-16.94,6.35c-11.32,0-22.27-8.32-22.27-23.95s10.37-25.92,23.22-25.92c6.06,0,11.03,2.04,15.33,5.99l-3.36,4.97Z"/>
        <path class="cls-1" d="M320.65,244.09l.73,5.48h-7.3v-41.33l-.95-6.72h7.52v42.57Z"/>
        <path class="cls-1" d="M353.88,201.15c9.13-.29,15.63,3.8,15.63,11.39,0,4.02-3.58,8.11-5.48,10,4.75,2.19,8.25,5.19,8.25,12.12,0,7.81-4.67,14.9-17.96,14.9h-11.03v-41.33l-.95-6.72,11.54-.37ZM349.86,220.87h5.26c2.78,0,5.18.51,5.33.51,1.24-1.68,2.77-4.16,2.77-7.38,0-5.11-3.14-7.52-10.22-7.52-.95,0-2.04.07-3.14.15v14.24ZM349.86,244.31h5.33c7.81,0,10.15-4.53,10.15-8.98,0-6.64-3.87-9.05-11.32-9.05h-4.16v18.04Z"/>
        <path class="cls-1" d="M400.76,201.52l4.45-.95,14.9,40.97,3.65,8.03h-7.96l-4.6-12.56h-17.89l-4.75,12.56h-6.35l18.55-48.05ZM395.28,231.46h14.09l-6.06-16.79-.73-2.85-.88,2.92-6.43,16.72Z"/>
        <path class="cls-1" d="M444.79,246.79c0,8.98-4.31,17.31-14.31,17.31-1.17,0-2.48-.15-3.94-.44l.37-6.43c1.24.58,2.41.95,3.58.95,4.75,0,7.74-5.26,7.74-11.39v-38.56l-.95-6.72h7.52v45.27Z"/>
        <path class="cls-1" d="M477,201.52l4.45-.95,14.9,40.97,3.65,8.03h-7.96l-4.6-12.56h-17.89l-4.75,12.56h-6.35l18.55-48.05ZM471.52,231.46h14.09l-6.06-16.79-.73-2.85-.88,2.92-6.43,16.72Z"/>
      </g>
      <g>
        <path class="cls-1" d="M147.49,327.56l.21,1.54h-2.05v-11.61l-.27-1.89h2.11v11.96Z"/>
        <path class="cls-1" d="M170.86,327.56l.12,1.54h-.96l-7.69-8.62-.88-1.33v8.41l.2,1.54h-1.89v-11.61l-.27-1.89h1.25l7.53,8.53.9,1.33v-7.98l-.27-1.89h1.95v11.96Z"/>
        <path class="cls-1" d="M180.87,315.6h10.59v1.56h-4.43v10.4l.21,1.54h-2.05v-11.94h-4.31v-1.56Z"/>
        <path class="cls-1" d="M201.69,317.48l-.27-1.89h7.02v1.52h-4.9v4.31h4.29l-.41,1.52h-3.88v4.64h5.13l-.41,1.52h-6.56v-11.61Z"/>
        <path class="cls-1" d="M226.96,329.1l-3.61-5.07c-.23.02-.51.02-1.72.02v3.51l.21,1.54h-2.05v-11.61l-.27-1.89h3.82c2.26,0,4.43,1.29,4.43,4.06,0,1.6-1.01,3.1-2.63,3.86l4.21,5.58h-2.38ZM222.96,322.53c1.52,0,2.85-1.31,2.85-2.87,0-1.68-1.33-2.54-2.85-2.54h-1.33v5.42h1.33Z"/>
        <path class="cls-1" d="M241.53,327.56l.21,1.54h-2.05v-11.61l-.27-1.89h2.11v11.96Z"/>
        <path class="cls-1" d="M264.65,322.22c0,3.98-2.69,7.14-6.19,7.14-3.75,0-5.89-3.1-5.89-6.89s2.65-7.12,6.15-7.12c3.96,0,5.93,2.93,5.93,6.87ZM258.62,327.88c2.42,0,4.02-2.48,4.02-5.54s-1.6-5.54-4.02-5.54-4.04,2.48-4.04,5.54,1.62,5.54,4.04,5.54Z"/>
        <path class="cls-1" d="M282.88,329.1l-3.61-5.07c-.23.02-.51.02-1.72.02v3.51l.2,1.54h-2.05v-11.61l-.27-1.89h3.82c2.26,0,4.43,1.29,4.43,4.06,0,1.6-1,3.1-2.63,3.86l4.21,5.58h-2.38ZM278.88,322.53c1.52,0,2.85-1.31,2.85-2.87,0-1.68-1.33-2.54-2.85-2.54h-1.33v5.42h1.33Z"/>
        <path class="cls-1" d="M297.45,327.56l.2,1.54h-2.05v-11.61l-.27-1.89h2.11v11.96Z"/>
        <path class="cls-1" d="M308.86,326.08s1.5,1.81,3.53,1.81c1.17,0,2.19-.8,2.19-2.24,0-2.71-5.89-2.81-5.89-6.44,0-2.11,1.64-3.86,3.96-3.86,1.62,0,2.77.57,3.39.96l-.53,1.5c-.04-.1-1.35-1.01-2.91-1.01-.96,0-1.97.66-1.97,1.85,0,2.95,5.78,2.71,5.78,6.73,0,2.32-1.58,3.98-4.08,3.98s-3.67-1.52-3.67-1.52c.02-.02.2-1.76.2-1.76Z"/>
        <path class="cls-1" d="M325.33,315.6h10.59v1.56h-4.43v10.4l.2,1.54h-2.05v-11.94h-4.31v-1.56Z"/>
        <path class="cls-1" d="M348.16,315.6l1.25-.27,4.18,11.51,1.03,2.26h-2.24l-1.29-3.53h-5.03l-1.33,3.53h-1.78l5.21-13.5ZM346.62,324.01h3.96l-1.7-4.72-.2-.8-.25.82-1.81,4.7Z"/>
      </g>
      <rect class="cls-1" x="28.27" y="282.16" width="443.45" height="3.7"/>
      <path class="cls-1" d="M175.99,0v149.11h148.02V0h-148.02ZM180.42,14.78h67.36v5.91h-67.36v-5.91ZM293.11,72.25V4.43h5.91v67.81h-5.91ZM288.68,72.25h-5.91V4.43h5.91v67.81ZM278.33,72.25h-5.91V4.43h5.91v67.81ZM267.98,72.25h-5.91V4.43h5.91v67.81ZM257.63,72.25h-5.42V4.43h5.42v67.81ZM180.42,56.17h67.36v5.82h-67.36v-5.82ZM180.42,25.13h67.36v5.91h-67.36v-5.91ZM180.42,35.48h67.36v5.91h-67.36v-5.91ZM180.42,45.82h67.36v5.91h-67.36v-5.91ZM180.42,66.43h67.36v5.82h-67.36v-5.82ZM196.09,76.68v68h-5.91v-68h5.91ZM200.53,76.68h5.91v68h-5.91v-68ZM210.87,76.68h5.91v68h-5.91v-68ZM221.22,76.68h5.91v68h-5.91v-68ZM231.57,76.68h5.82v68h-5.82v-68ZM241.82,76.68h5.96v68h-5.96v-68ZM319.58,124.03h-67.36v-5.91h67.36v5.91ZM319.58,113.68h-67.36v-5.91h67.36v5.91ZM252.22,128.46h67.36v5.82h-67.36v-5.82ZM319.58,103.33h-67.36v-5.91h67.36v5.91ZM319.58,92.99h-67.36v-5.91h67.36v5.91ZM319.58,82.64h-67.36v-5.96h67.36v5.96ZM303.46,72.25V4.43h5.82v67.81h-5.82ZM247.78,4.43v5.91h-67.36v-5.91h67.36ZM180.42,76.68h5.32v68h-5.32v-68ZM252.22,144.68v-5.96h67.36v5.96h-67.36ZM319.58,72.25h-5.87V4.43h5.87v67.81Z"/>
    </g>
  </g>
</svg>