
<svg id="Capa_2" data-name="Capa 2" xmlns="http://www.w3.org/2000/svg" viewBox="0 0 100 100.73">
  <defs>
    <style>
      .cls-1 {
        fill: #f4f4f5;
        stroke-width: 0px;
      }
    </style>
  </defs>
  <g id="Capa_1-2" data-name="Capa 1">
    <g id="elenaCibaja-logoSm-dark-F4F4F5">
      <path class="cls-1" d="M0,0v100.73h100V0H0ZM3,9.99h45.51v3.99H3v-3.99ZM79.12,48.81V3h3.99v45.81h-3.99ZM76.13,48.81h-3.99V3h3.99v45.81ZM69.14,48.81h-3.99V3h3.99v45.81ZM62.15,48.81h-3.99V3h3.99v45.81ZM55.16,48.81h-3.66V3h3.66v45.81ZM3,37.95h45.51v3.93H3v-3.93ZM3,16.98h45.51v3.99H3v-3.99ZM3,23.97h45.51v3.99H3v-3.99ZM3,30.96h45.51v3.99H3v-3.99ZM3,44.87h45.51v3.93H3v-3.93ZM13.58,51.8v45.94h-3.99v-45.94h3.99ZM16.58,51.8h3.99v45.94h-3.99v-45.94ZM23.57,51.8h3.99v45.94h-3.99v-45.94ZM30.56,51.8h3.99v45.94h-3.99v-45.94ZM37.55,51.8h3.93v45.94h-3.93v-45.94ZM44.48,51.8h4.03v45.94h-4.03v-45.94ZM97,83.79h-45.51v-3.99h45.51v3.99ZM97,76.8h-45.51v-3.99h45.51v3.99ZM51.5,86.78h45.51v3.93h-45.51v-3.93ZM97,69.81h-45.51v-3.99h45.51v3.99ZM97,62.82h-45.51v-3.99h45.51v3.99ZM97,55.83h-45.51v-4.03h45.51v4.03ZM86.11,48.81V3h3.93v45.81h-3.93ZM48.5,3v3.99H3v-3.99h45.51ZM3,51.8h3.6v45.94h-3.6v-45.94ZM51.5,97.74v-4.03h45.51v4.03h-45.51ZM97,48.81h-3.96V3h3.96v45.81Z"/>
    </g>
  </g>
</svg>
