<svg class="w-12 mb-4" data-name="Capa 2" viewBox="0 0 100 100.73">
				<path
					d="M0 0v100.73h100V0H0Zm3 9.99h45.51v3.99H3V9.99Zm76.12 38.82V3h3.99v45.81h-3.99Zm-2.99 0h-3.99V3h3.99v45.81Zm-6.99 0h-3.99V3h3.99v45.81Zm-6.99 0h-3.99V3h3.99v45.81Zm-6.99 0H51.5V3h3.66v45.81ZM3 37.95h45.51v3.93H3v-3.93Zm0-20.97h45.51v3.99H3v-3.99Zm0 6.99h45.51v3.99H3v-3.99Zm0 6.99h45.51v3.99H3v-3.99Zm0 13.91h45.51v3.93H3v-3.93Zm10.58 6.93v45.94H9.59V51.8h3.99Zm3 0h3.99v45.94h-3.99V51.8Zm6.99 0h3.99v45.94h-3.99V51.8Zm6.99 0h3.99v45.94h-3.99V51.8Zm6.99 0h3.93v45.94h-3.93V51.8Zm6.93 0h4.03v45.94h-4.03V51.8ZM97 83.79H51.49V79.8H97v3.99Zm0-6.99H51.49v-3.99H97v3.99Zm-45.5 9.98h45.51v3.93H51.5v-3.93ZM97 69.81H51.49v-3.99H97v3.99Zm0-6.99H51.49v-3.99H97v3.99Zm0-6.99H51.49V51.8H97v4.03Zm-10.89-7.02V3h3.93v45.81h-3.93ZM48.5 3v3.99H3V3h45.51ZM3 51.8h3.6v45.94H3V51.8Zm48.5 45.94v-4.03h45.51v4.03H51.5ZM97 48.81h-3.96V3H97v45.81Z"
					style="fill:currentColor;stroke-width:0;"
					data-name="Capa 1"
				>
				</path>
			</svg>