<?xml version="1.0" standalone="no"?>
<!DOCTYPE svg PUBLIC "-//W3C//DTD SVG 20010904//EN"
 "http://www.w3.org/TR/2001/REC-SVG-20010904/DTD/svg10.dtd">
<svg version="1.0" xmlns="http://www.w3.org/2000/svg"
 width="808.000000pt" height="808.000000pt" viewBox="0 0 808.000000 808.000000"
 preserveAspectRatio="xMidYMid meet">
<metadata>
Created by potrace 1.14, written by Peter Selinger 2001-2017
</metadata>
<g transform="translate(0.000000,808.000000) scale(0.100000,-0.100000)"
fill="#000000" stroke="none">
<path d="M30 4040 l0 -4040 4015 0 4015 0 0 4040 0 4040 -4015 0 -4015 0 0
-4040z m510 3800 c3 -1 25 -1 50 -1 25 1 51 2 58 1 6 0 29 0 50 -1 20 -1 55
-1 77 0 22 0 80 1 128 1 49 0 92 1 95 1 4 1 12 0 17 -1 6 -1 46 -1 90 0 44 1
89 1 100 1 130 -1 216 -1 245 0 19 1 40 0 45 -1 6 -1 30 -1 55 -1 25 1 51 2
58 1 6 0 29 0 50 -1 20 -1 55 -1 77 0 22 0 80 1 128 1 49 0 92 1 95 1 4 1 12
0 17 -1 6 -1 46 -1 90 0 44 1 89 1 100 1 130 -1 216 -1 245 0 19 1 40 0 45 -1
6 -1 30 -1 55 -1 25 1 51 2 58 1 6 0 29 0 50 -1 20 -1 55 -1 77 0 22 0 80 1
128 1 49 0 92 1 95 1 4 1 12 0 17 -1 6 -1 46 -1 90 0 44 1 89 1 100 1 130 -1
216 -1 245 0 19 1 40 0 45 -1 6 -1 30 -1 55 -1 25 1 51 2 58 1 6 0 29 0 50 -1
20 -1 55 -1 77 0 22 1 92 1 155 1 l115 -1 -1 -152 c-2 -193 1 -177 -31 -168
-16 4 -39 6 -53 4 -14 -2 -70 -3 -125 -3 -55 1 -109 1 -120 1 -11 -1 -67 -1
-125 0 -58 0 -112 0 -120 -1 -8 0 -60 0 -115 1 -55 0 -109 0 -120 0 -11 -1
-67 -1 -125 0 -58 0 -112 0 -120 -1 -12 0 -167 1 -230 1 -8 0 -31 -1 -50 -4
-19 -2 -50 0 -68 4 -17 4 -34 4 -36 0 -6 -9 -60 -6 -75 4 -6 3 -11 2 -11 -3 0
-6 -14 -7 -35 -2 -19 4 -37 5 -39 1 -6 -9 -60 -6 -75 4 -6 3 -11 2 -11 -3 0
-6 -14 -7 -35 -2 -19 4 -37 5 -39 1 -6 -9 -60 -6 -75 4 -6 3 -11 2 -11 -3 0
-6 -14 -7 -35 -2 -19 4 -37 5 -39 1 -3 -4 -20 -6 -38 -3 -18 2 -42 3 -53 3
-11 0 -65 0 -120 0 -55 0 -109 0 -120 0 -11 -1 -67 -1 -125 0 -58 0 -112 0
-120 -1 -8 0 -60 0 -115 1 -55 0 -109 0 -120 0 -11 -1 -67 -1 -125 0 -58 0
-112 0 -120 -1 -12 0 -167 1 -230 1 -8 0 -31 -1 -50 -4 -19 -2 -50 0 -68 4
-17 4 -34 4 -36 0 -6 -9 -60 -6 -75 4 -6 3 -11 2 -11 -3 0 -6 -14 -7 -35 -2
-19 4 -37 5 -39 1 -6 -8 -60 -6 -74 3 -6 3 -12 2 -14 -3 -2 -5 -13 -5 -25 0
-22 8 -23 12 -23 163 l0 154 95 0 c53 0 98 1 100 3 3 4 64 3 75 -1z m3840 0
c3 -1 22 -2 43 -2 l37 0 -2 -1837 -3 -1836 -142 0 c-90 0 -143 3 -144 10 -1 5
-2 832 -3 1837 l-1 1826 68 0 c37 0 70 1 72 3 3 4 64 3 75 -1z m562 -4 l79 -1
0 -1767 c0 -973 -1 -1798 -1 -1836 l0 -67 -157 0 -158 0 -2 1836 -2 1837 66 1
c36 0 68 3 71 6 3 2 9 2 15 -2 5 -3 45 -6 89 -7z m448 3 c25 1 52 2 60 1 8 0
41 0 73 0 31 0 57 -4 58 -8 0 -9 0 -3621 0 -3647 -1 -20 -7 -21 -158 -20
l-158 0 -2 1838 c0 1011 1 1836 4 1834 2 -3 16 -2 31 3 15 4 31 5 37 2 5 -3
30 -5 55 -3z m695 -2 l59 -2 1 -1823 c0 -1003 -3 -1829 -7 -1835 -9 -15 -307
-17 -310 -2 0 5 -2 832 -3 1837 l-1 1827 78 -1 c43 0 81 2 85 6 4 4 14 4 22 0
9 -3 43 -6 76 -7z m380 0 c172 6 235 3 236 -10 3 -34 4 -3625 1 -3643 -3 -19
-10 -20 -160 -19 l-157 0 -1 1830 c-1 1106 3 1835 8 1842 5 6 17 9 26 5 9 -3
30 -5 47 -5z m618 2 c133 2 158 2 168 -5 5 -3 9 -823 9 -1837 l0 -1832 -155 0
c-131 0 -155 2 -156 15 -7 84 -3 3648 4 3657 5 7 14 10 19 7 5 -4 56 -6 111
-5z m546 -1 c46 2 87 5 92 7 4 3 10 2 13 -3 2 -4 23 -7 45 -5 l40 2 -2 -1837
-2 -1837 -155 0 -155 0 -2 1835 c-1 1344 2 1837 10 1842 6 4 16 4 21 0 6 -3
48 -5 95 -4z m-3703 -719 l-1 -159 -25 -1 c-33 0 -3578 0 -3607 0 -23 1 -23 2
-23 160 l0 159 1828 -1 1828 0 0 -158z m-1 -557 c0 -128 -2 -155 -15 -161 -11
-5 -3588 -7 -3632 -2 -9 1 -11 305 -3 313 3 2 825 4 1828 4 l1822 -1 0 -153z
m1 -560 c0 -92 -4 -156 -10 -159 -11 -7 -3599 -11 -3628 -4 -16 3 -18 19 -18
155 0 84 2 155 5 157 2 3 825 5 1827 5 l1823 -1 1 -153z m0 -557 c1 -82 -2
-154 -7 -160 -5 -7 -625 -10 -1826 -10 l-1818 0 -3 150 c-1 82 -1 154 2 160 3
8 495 11 1827 11 l1824 -1 1 -150z m-1 -565 l0 -155 -70 -2 c-63 -3 -82 -3
-127 -2 -7 0 -42 -1 -78 -1 -36 0 -86 -1 -112 -1 -27 0 -54 0 -60 0 -7 0 -49
0 -93 0 -44 0 -87 0 -95 0 -8 0 -24 0 -35 1 -11 0 -32 1 -47 1 -16 -1 -35 -1
-43 -1 -8 0 -26 0 -40 0 -14 0 -31 0 -37 1 -7 0 -42 -1 -78 -1 -36 0 -86 -1
-112 -1 -27 0 -54 0 -60 0 -7 0 -49 0 -93 0 -107 1 -111 1 -140 0 -38 0 -55 0
-125 1 -36 1 -69 1 -75 0 -5 -1 -14 -1 -20 0 -8 2 -148 1 -220 -1 -5 0 -19 0
-30 1 -11 0 -49 1 -85 0 -36 0 -86 -1 -112 -1 -27 0 -54 0 -60 0 -7 0 -49 0
-93 0 -107 1 -111 1 -140 0 -38 0 -55 0 -125 1 -36 1 -69 1 -75 0 -5 -1 -14
-1 -20 0 -5 1 -39 2 -75 1 -36 -1 -69 -2 -75 -2 -51 2 -142 2 -150 1 -5 -1
-14 -1 -20 0 -8 2 -148 1 -220 -1 -5 0 -19 0 -30 1 -11 0 -49 1 -85 0 -36 0
-86 -1 -112 -1 -27 0 -54 0 -60 0 -7 0 -49 0 -93 0 -44 0 -87 0 -95 0 -8 0
-24 0 -35 1 -11 0 -35 0 -52 -1 -18 0 -37 2 -43 6 -10 6 -15 297 -6 306 3 2
825 4 1828 4 l1823 0 0 -155z m-7 -405 c11 -11 9 -304 -3 -308 -5 -1 -827 -2
-1825 -2 l-1815 0 -3 157 -3 157 43 3 c88 6 3600 0 3606 -7z m-3357 -588 c3
-20 2 -37 -3 -37 -5 0 -6 -5 -3 -10 4 -6 6 -34 6 -63 0 -29 -1 -73 -1 -99 0
-27 0 -55 0 -63 0 -8 0 -22 0 -30 -1 -136 1 -198 6 -207 3 -4 0 -8 -6 -8 -6 0
-8 -5 -5 -10 4 -6 6 -34 6 -63 0 -29 -1 -73 -1 -99 0 -27 0 -55 0 -63 0 -8 0
-22 0 -30 0 -8 0 -36 0 -62 0 -27 -1 -71 -1 -100 0 -29 2 -57 6 -63 3 -5 3
-10 -2 -10 -9 0 -8 -123 1 -146 3 -8 2 -14 -2 -14 -8 0 -6 -124 2 -146 3 -8 2
-14 -2 -14 -8 0 -6 -124 2 -146 3 -8 1 -14 -5 -14 -6 0 -8 -4 -5 -8 5 -9 7
-71 6 -207 0 -8 0 -22 0 -30 -1 -136 1 -198 6 -207 3 -4 0 -8 -6 -8 -6 0 -8
-5 -5 -10 4 -6 6 -34 6 -63 0 -29 -1 -73 -1 -99 0 -27 0 -55 0 -63 0 -8 0 -22
0 -30 -1 -136 1 -198 6 -207 3 -4 0 -8 -6 -8 -6 0 -8 -5 -5 -10 4 -6 6 -34 6
-63 0 -29 -1 -73 -1 -99 0 -27 0 -55 0 -63 0 -8 0 -22 0 -30 0 -8 0 -36 0 -62
0 -27 -1 -71 -1 -100 0 -29 2 -57 6 -63 3 -5 3 -10 -2 -10 -9 0 -8 -123 1
-146 3 -8 2 -14 -2 -14 -8 0 -6 -124 2 -146 3 -8 2 -14 -2 -14 -8 0 -6 -124 2
-146 3 -8 1 -14 -5 -14 -6 0 -8 -4 -5 -8 5 -9 7 -66 5 -142 0 -25 0 -48 0 -52
2 -20 0 -23 -21 -26 -47 -5 -137 -4 -147 2 -5 4 -12 2 -16 -3 -3 -7 -15 -7
-30 -1 -13 5 -25 5 -27 1 -2 -5 -13 -5 -26 0 l-22 8 0 1839 0 1838 142 -1 143
0 6 -38z m553 32 c5 -5 9 -2353 6 -3521 0 -142 -2 -157 -17 -157 -10 -1 -25
-1 -33 -2 -8 0 -26 0 -40 0 -14 1 -53 1 -88 1 -34 -1 -67 2 -72 5 -6 3 -10 2
-10 -3 0 -10 -48 -4 -55 7 -2 4 -4 25 -5 47 -1 37 -1 233 -1 264 0 8 0 44 0
80 -1 36 -1 70 -1 75 1 6 1 39 1 75 0 36 0 74 0 85 1 103 0 149 -5 156 -3 5 0
9 6 9 6 0 9 4 6 9 -5 7 -7 59 -5 154 0 9 -1 62 -1 117 -1 54 1 104 5 110 3 5
1 10 -5 10 -6 0 -8 4 -5 10 5 8 7 126 4 180 -1 8 -1 35 0 60 1 25 1 82 1 128
-1 45 2 87 5 92 3 6 2 10 -3 10 -5 0 -6 16 -3 38 4 20 5 64 1 98 -3 34 -3 72
0 85 3 13 4 39 0 57 -3 19 -3 73 0 122 3 49 3 103 0 122 -4 18 -3 44 0 57 3
13 3 49 0 80 -3 31 -3 76 0 101 3 25 3 61 0 80 -4 19 -4 46 0 59 3 13 3 51 0
85 -4 34 -3 78 1 99 3 21 2 37 -3 37 -5 0 -6 4 -3 10 5 8 7 126 4 180 -1 8 -1
35 0 60 1 25 1 82 1 128 -1 45 2 87 5 92 3 6 2 10 -3 10 -5 0 -6 17 -2 40 4
22 4 40 0 40 -4 0 -4 18 0 40 4 23 3 40 -2 40 -5 0 -6 4 -3 10 3 5 6 47 5 92
-1 120 -1 129 4 137 5 8 302 8 310 0z m562 -2 c9 -9 12 -3585 3 -3599 -4 -6
-3 -23 1 -38 11 -39 -2 -47 -60 -40 -27 4 -55 3 -61 -1 -7 -4 -24 -3 -39 1
-15 4 -32 5 -38 1 -5 -3 -35 -4 -65 -3 l-54 4 -1 1836 c0 1011 2 1839 3 1842
5 9 302 6 311 -3z m560 0 c10 -10 12 -3647 2 -3669 -7 -14 -14 -15 -33 -8 -15
6 -27 6 -30 -1 -4 -5 -11 -7 -16 -3 -13 7 -113 9 -125 2 -5 -3 -18 -2 -29 2
-11 4 -30 4 -42 -1 -14 -5 -25 -4 -31 4 -7 9 -11 3681 -4 3682 22 5 303 -2
308 -8z m565 3 c1 -3 2 -832 3 -1842 l1 -1837 -60 0 c-33 -1 -67 -1 -75 -2 -8
0 -26 0 -40 1 -14 0 -49 0 -78 -1 -29 -1 -56 1 -60 5 -6 7 -13 3663 -6 3676 3
7 314 7 315 0z m560 -27 c3 -18 3 -33 -2 -33 -5 0 -6 -6 -3 -14 8 -21 10 -106
2 -106 -4 0 -5 -7 -2 -15 9 -22 10 -265 2 -265 -3 0 -3 -12 1 -27 4 -16 4 -40
0 -55 -4 -16 -5 -28 -1 -28 4 0 7 -47 7 -105 0 -58 -3 -105 -7 -105 -3 0 -3
-12 1 -27 4 -16 4 -40 0 -55 -4 -16 -5 -28 -1 -28 4 0 7 -29 7 -65 0 -36 -3
-65 -7 -65 -4 0 -5 -6 -2 -14 9 -23 10 -106 1 -106 -5 0 -5 -5 -1 -12 9 -14 8
-333 -1 -348 -3 -5 -3 -10 2 -10 9 0 8 -83 -1 -106 -3 -8 -2 -14 2 -14 4 0 7
-79 7 -175 0 -96 -3 -175 -7 -175 -4 0 -5 -6 -2 -14 8 -21 10 -106 2 -106 -4
0 -5 -7 -1 -16 8 -22 9 -184 1 -184 -4 0 -5 -6 -2 -14 9 -23 10 -106 1 -106
-5 0 -5 -5 -1 -12 9 -14 8 -333 -1 -348 -3 -5 -3 -10 2 -10 9 0 8 -83 -1 -106
-3 -8 -2 -14 2 -14 4 0 7 -79 7 -175 0 -96 -3 -175 -7 -175 -4 0 -5 -6 -2 -14
9 -23 10 -106 1 -106 -5 0 -5 -5 -1 -11 4 -7 7 -71 7 -142 -1 -112 -3 -132
-18 -143 -12 -9 -25 -10 -41 -4 -13 5 -25 6 -28 2 -3 -4 -32 -5 -65 -2 -34 3
-61 3 -61 0 0 -6 -85 -4 -96 3 -7 4 -12 3650 -5 3677 0 3 69 5 153 5 l152 0 7
-32z m559 28 c3 0 5 -827 5 -1837 l0 -1837 -22 -8 c-13 -5 -25 -4 -28 1 -3 5
-15 6 -28 1 -12 -5 -32 -5 -44 0 -13 5 -25 4 -28 -2 -4 -5 -11 -6 -17 -3 -13
8 -113 8 -126 0 -5 -3 -14 0 -20 7 -6 8 -9 662 -7 1847 1 1009 2 1835 3 1835
5 1 308 -3 312 -4z m3895 -156 l0 -160 -92 0 c-51 0 -93 -4 -93 -8 0 -5 -5 -5
-12 -1 -17 11 -108 11 -108 1 0 -5 -5 -5 -12 -1 -17 11 -108 11 -108 1 0 -5
-5 -5 -12 -1 -17 11 -108 11 -108 1 0 -5 -5 -5 -12 -1 -17 11 -108 11 -108 1
0 -5 -5 -5 -12 -1 -17 10 -108 11 -108 1 0 -4 -8 -4 -17 1 -10 4 -36 7 -58 5
-22 -2 -46 -3 -52 -3 -7 0 -33 0 -58 0 -25 0 -52 0 -60 0 -8 0 -35 0 -60 0
-25 0 -52 0 -60 0 -8 0 -35 0 -60 0 -25 0 -53 0 -62 0 -10 0 -198 1 -419 2
-220 0 -406 -2 -412 -6 -7 -4 -12 -4 -12 1 0 10 -91 10 -108 -1 -7 -4 -12 -4
-12 1 0 10 -91 10 -108 -1 -7 -4 -12 -4 -12 1 0 10 -91 10 -108 -1 -7 -4 -12
-4 -12 1 0 10 -91 10 -108 -1 -7 -4 -12 -4 -12 1 0 10 -91 10 -108 -1 -7 -4
-12 -4 -12 1 0 10 -91 10 -108 -1 -7 -4 -12 -4 -12 1 0 10 -91 10 -108 -1 -7
-4 -12 -4 -12 1 0 10 -91 10 -108 -1 -7 -4 -12 -4 -12 1 0 10 -91 10 -108 -1
-7 -4 -12 -4 -12 1 0 4 -102 8 -227 8 l-228 0 -1 155 c0 85 1 157 2 160 1 3
823 5 1826 5 l1823 0 0 -160z m-10 -409 c12 -4 14 -34 13 -160 l-1 -155 -1822
0 c-1421 0 -1824 2 -1827 12 -2 7 -4 77 -4 157 1 142 1 144 24 150 30 7 3598
4 3617 -4z m-3552 -560 c3 3 74 6 159 6 159 -1 276 -1 311 -2 6 -1 57 0 112 1
55 0 105 0 110 -1 6 -1 15 -1 20 0 6 1 28 2 50 1 61 0 135 0 190 0 28 1 55 0
60 -1 6 -1 15 -1 20 0 6 1 39 1 75 0 76 -3 86 -3 120 -1 14 1 32 1 40 1 8 -1
85 0 170 0 147 1 263 1 313 0 6 -1 57 0 112 1 55 0 105 0 110 -1 6 -1 15 -1
20 0 6 1 39 1 75 0 76 -3 86 -3 120 -1 14 1 32 1 40 1 8 -1 85 0 170 0 147 1
263 1 313 0 6 -1 57 0 112 1 55 0 105 0 110 -1 6 -1 15 -1 20 0 6 1 39 1 75 0
76 -3 86 -3 120 -1 14 1 32 1 40 1 8 0 92 0 187 1 94 1 176 -2 181 -5 7 -4 11
-67 11 -158 0 -156 -5 -176 -39 -158 -9 5 -22 5 -30 0 -7 -4 -24 -4 -36 0 -14
6 -26 5 -29 0 -3 -6 -15 -6 -30 0 -15 6 -27 6 -30 -1 -4 -5 -11 -7 -16 -3 -9
5 -69 6 -139 3 -8 0 -26 0 -40 1 -14 0 -46 0 -72 -1 -27 -1 -51 0 -54 4 -3 3
-17 2 -30 -3 -14 -6 -26 -6 -29 0 -3 5 -15 6 -29 0 -12 -4 -29 -4 -36 0 -8 5
-21 5 -29 1 -9 -4 -29 -5 -46 -1 -16 3 -43 3 -60 0 -16 -3 -43 -3 -60 0 -16 4
-40 3 -52 -1 -12 -5 -25 -4 -28 1 -3 6 -15 6 -30 0 -15 -6 -27 -6 -30 0 -3 6
-15 6 -30 0 -13 -5 -27 -6 -29 -1 -3 4 -25 5 -48 2 -24 -4 -56 -4 -73 -1 -16
4 -40 3 -52 -1 -12 -5 -25 -4 -28 1 -3 6 -15 6 -30 0 -15 -6 -27 -6 -30 0 -3
6 -15 6 -30 0 -13 -5 -26 -6 -29 -2 -3 5 -30 5 -61 2 -31 -3 -58 -3 -61 2 -3
4 -16 3 -29 -2 -15 -6 -27 -6 -30 0 -3 5 -15 6 -29 0 -12 -4 -29 -4 -36 0 -8
5 -21 5 -31 0 -9 -5 -19 -7 -22 -4 -4 4 -86 6 -137 3 -8 0 -26 0 -40 0 -14 1
-51 1 -82 0 -31 0 -61 2 -67 5 -5 4 -12 2 -16 -3 -3 -7 -15 -7 -30 -1 -15 6
-27 6 -30 0 -3 -6 -15 -6 -30 0 -15 6 -27 6 -30 -1 -4 -5 -11 -7 -16 -3 -9 5
-69 6 -139 3 -8 0 -26 0 -40 1 -14 0 -46 0 -72 -1 -27 -1 -51 0 -54 4 -3 3
-17 2 -30 -3 -14 -6 -26 -6 -29 0 -3 5 -15 6 -29 0 -12 -4 -29 -4 -36 0 -8 5
-21 5 -29 1 -9 -4 -29 -5 -46 -1 -16 3 -49 3 -73 -1 -23 -3 -45 -2 -48 2 -2 5
-16 4 -29 -1 -15 -6 -27 -6 -30 0 -3 5 -15 6 -29 0 -12 -4 -29 -4 -36 0 -8 5
-21 5 -31 0 -9 -5 -19 -7 -22 -4 -4 4 -86 6 -137 3 -8 0 -26 0 -40 0 -14 1
-51 1 -82 0 -31 0 -61 2 -67 5 -5 4 -12 2 -16 -3 -3 -7 -15 -7 -30 -1 -15 6
-27 6 -30 0 -3 -6 -15 -6 -30 0 -15 6 -27 6 -30 -1 -4 -5 -11 -7 -16 -3 -13 8
-123 9 -136 1 -5 -3 -15 -2 -22 3 -8 4 -26 4 -42 0 -18 -6 -31 -4 -37 3 -7 10
-9 251 -3 304 1 14 51 22 67 11 6 -4 13 -5 17 -2z m1125 -556 c576 0 1056 1
1067 0 11 0 49 0 85 1 36 0 72 0 80 0 8 -1 44 -1 80 0 36 0 72 0 80 0 8 -1 44
-1 80 0 36 0 72 0 80 0 8 0 212 -1 452 -2 l438 -1 -3 -156 -2 -157 -1825 0
-1825 0 0 155 0 155 68 1 c38 1 71 4 74 8 3 3 10 3 15 0 5 -3 480 -5 1056 -4z
m1171 -561 c25 1 53 1 61 1 8 0 35 0 60 0 25 0 52 0 60 0 8 0 35 0 60 0 25 0
52 0 60 0 8 0 35 0 60 0 25 0 52 0 60 0 8 0 35 0 60 0 25 0 52 0 60 0 8 0 35
0 60 0 25 0 52 0 60 0 8 0 35 0 60 0 25 0 52 0 60 0 8 0 35 0 60 0 25 0 52 0
60 0 8 0 35 0 60 0 25 0 52 0 60 0 8 0 35 0 60 0 60 1 66 1 130 -2 l55 -3 2
-157 1 -156 -33 -4 c-19 -2 -43 0 -55 4 -12 4 -19 4 -16 0 5 -9 -98 -7 -113 2
-6 4 -11 4 -11 -1 0 -9 -82 -8 -106 1 -8 3 -13 2 -10 -2 2 -4 -12 -6 -32 -5
-75 3 -99 4 -170 1 -39 -2 -72 1 -72 5 0 4 -8 4 -17 0 -10 -5 -79 -7 -153 -6
-167 3 -168 3 -205 0 -16 -1 -40 1 -52 5 -13 4 -23 4 -23 0 0 -4 -27 -7 -59
-7 -33 0 -57 3 -55 7 3 4 -2 5 -12 1 -24 -9 -66 -10 -91 -1 -13 4 -23 4 -23 0
0 -9 -214 -7 -229 2 -6 4 -11 4 -11 -1 0 -4 -27 -8 -59 -8 -33 0 -57 3 -54 7
2 5 -6 5 -19 0 -28 -9 -70 -8 -85 1 -6 4 -14 4 -17 -1 -3 -5 -20 -7 -38 -5
-33 4 -50 4 -98 0 -14 -2 -35 1 -46 5 -12 4 -25 4 -28 1 -8 -9 -171 -7 -185 1
-6 4 -11 4 -11 -1 0 -4 -27 -8 -59 -8 -33 0 -57 3 -54 7 2 5 -6 5 -19 0 -28
-9 -70 -8 -85 1 -6 4 -14 4 -17 -1 -3 -5 -20 -7 -38 -5 -33 4 -50 4 -98 0 -14
-2 -35 1 -46 5 -12 4 -25 4 -28 1 -8 -9 -171 -7 -185 1 -6 4 -11 4 -11 -1 0
-4 -27 -8 -59 -8 -33 0 -57 3 -54 7 2 5 -6 5 -19 0 -28 -9 -70 -8 -85 1 -6 4
-14 4 -17 -1 -3 -5 -20 -7 -38 -5 -33 4 -50 4 -98 0 -14 -2 -35 1 -46 5 -12 4
-25 4 -28 1 -8 -9 -171 -7 -185 1 -6 4 -11 4 -11 -1 0 -4 -25 -8 -55 -8 -30 0
-55 3 -55 7 0 4 -10 4 -22 -1 -49 -18 -53 -7 -52 149 1 80 2 150 3 156 1 8
333 11 1151 11 633 0 1153 3 1156 6 4 4 11 4 17 0 6 -4 31 -5 56 -4z m1271
-718 l0 -156 -1817 1 c-1000 1 -1823 2 -1828 3 -6 0 -10 59 -10 155 l0 154
1828 0 1827 0 0 -157z m-3 -559 l2 -162 -27 -1 c-15 -1 -31 0 -37 1 -5 1 -16
2 -22 1 -26 -2 -39 -3 -63 -2 -14 1 -32 1 -40 0 -8 0 -26 0 -40 0 -14 1 -53 1
-87 0 -34 0 -66 2 -72 5 -5 4 -12 2 -16 -3 -3 -7 -15 -7 -30 -1 -15 6 -27 6
-30 0 -3 -6 -15 -6 -30 0 -15 6 -27 6 -30 -1 -4 -5 -11 -7 -16 -3 -9 5 -63 6
-129 3 -8 0 -26 0 -40 0 -14 1 -54 1 -89 1 -35 -1 -66 1 -68 4 -3 3 -13 1 -22
-4 -10 -5 -23 -5 -31 0 -7 4 -24 4 -36 0 -14 -6 -26 -5 -29 0 -3 6 -15 6 -29
0 -13 -5 -27 -6 -30 -3 -5 5 -47 6 -111 2 -5 0 -21 0 -35 0 -14 1 -53 1 -87 0
-34 0 -66 2 -72 5 -5 4 -12 2 -16 -3 -3 -7 -15 -7 -30 -1 -15 6 -27 6 -30 0
-3 -6 -15 -6 -30 0 -15 6 -27 6 -30 -1 -4 -5 -11 -7 -16 -3 -9 5 -63 6 -129 3
-8 0 -26 0 -40 0 -14 1 -54 1 -89 1 -35 -1 -66 1 -68 4 -3 3 -13 1 -22 -4 -10
-5 -23 -5 -31 0 -7 4 -24 4 -36 0 -14 -6 -26 -5 -29 0 -3 6 -15 6 -29 0 -13
-5 -27 -6 -30 -3 -5 5 -47 6 -111 2 -5 0 -21 0 -35 0 -14 1 -53 1 -87 0 -34 0
-66 2 -72 5 -5 4 -12 2 -16 -3 -3 -7 -15 -7 -30 -1 -15 6 -27 6 -30 0 -3 -6
-15 -6 -30 0 -15 6 -27 6 -30 -1 -4 -5 -11 -7 -16 -3 -9 5 -63 6 -129 3 -8 0
-26 0 -40 0 -14 1 -32 1 -40 0 -8 0 -26 0 -40 0 -14 1 -32 1 -40 0 -8 0 -26 0
-40 0 -14 1 -53 1 -87 0 -34 0 -66 2 -72 5 -5 4 -12 2 -16 -3 -3 -7 -15 -7
-30 -1 -15 6 -27 6 -30 0 -3 -6 -15 -6 -30 0 -15 6 -27 6 -30 -1 -4 -5 -11 -7
-16 -3 -9 5 -63 6 -129 3 -8 0 -26 0 -40 0 -14 1 -54 1 -89 1 -35 -1 -66 1
-68 4 -3 3 -13 1 -22 -4 -10 -5 -23 -5 -31 0 -7 4 -24 4 -36 0 -14 -6 -26 -5
-29 0 -3 6 -15 6 -30 0 -15 -6 -27 -6 -30 1 -4 5 -10 7 -15 4 -4 -3 -14 -3
-22 0 -11 4 -14 37 -13 153 0 81 3 152 7 157 4 7 623 10 1825 10 l1818 -1 2
-162z"/>
</g>
</svg>
